<?xml version="1.0" encoding="UTF-8"?>
<svg id="Layer_1" xmlns="http://www.w3.org/2000/svg" version="1.1" viewBox="0 0 200 200">
  <!-- Generator: Adobe Illustrator 29.1.0, SVG Export Plug-In . SVG Version: 2.1.0 Build 142)  -->
  <defs>
    <style>
      .st0 {
        fill: #444;
      }

      .st1 {
        fill: #939393;
      }

      .st2 {
        fill: #fff;
      }
    </style>
  </defs>
  <rect width="200" height="200" rx="66.5" ry="66.5"/>
  <g>
    <path class="st1" d="M131.5,121.4l-2.9,6.6c-1.7,3.9-5.6,6.5-9.9,6.5h-6.2l3.2-7.2h3c1.4,0,2.7-.8,3.3-2.2l1.6-3.7,1.1-2.6,3.1-7.2,4.2-9.6c.2-.4.3-.9.3-1.4v-2.1c0-2-1.6-3.6-3.6-3.6h-23.4c-.2,0-.3,0-.5,0-.9-.1-1.8-.6-2.4-1.4-.7-.9-.9-2-.6-3.1l2-7.5,2.3-8.4c.1-.4,0-.8-.2-1.1-.1-.2-.3-.3-.4-.4-.6-.3-1.2-.1-1.6.4l-1.8,2.4-5.5,7.2-3.7,4.8c-.3-1.7-1.1-3.4-2.2-4.8-.5-.7-1.1-1.3-1.8-1.8l4.1-5.4,2-2.6,3.2-4.2c2.3-3,6.3-4.1,9.7-2.8.3,0,.5.2.8.3.5.3,1,.6,1.5,1,2.3,1.8,3.5,4.8,3.1,7.7,0,.4-.1.8-.2,1.2l-1.1,4-2,7.4h18.7c6,0,10.8,4.9,10.8,10.8v2.1c0,1.5-.3,3-.9,4.3l-2.9,6.7-3.1,7.2-1.1,2.6Z"/>
    <path class="st0" d="M162.5,84.9c0,1.5-.3,3-.9,4.3l-10.1,23.1c-1.7,3.9-5.6,6.5-9.9,6.5h-6.2l3.1-7.2h3.1c1.4,0,2.7-.8,3.3-2.2l10.1-23.1c.2-.4.3-.9.3-1.4v-2.1c0-2-1.6-3.6-3.6-3.6h-23.4c-1.1,0-2.2-.5-2.9-1.4-.7-.9-.9-2-.6-3.1l4.3-15.9c.2-.6-.1-1.2-.7-1.5-.6-.3-1.2-.1-1.6.4l-11,14.3c-.5-2.6-1.9-4.9-4-6.6l9.3-12.1c2.5-3.2,6.9-4.2,10.5-2.4,3.6,1.8,5.4,5.9,4.4,9.8l-3.1,11.4h18.7c6,0,10.8,4.8,10.8,10.8v2.1Z"/>
    <path class="st2" d="M116.4,111.6c-.6-2.6-2.2-4.8-4.2-6.3-1.8-1.3-3.9-2-6.3-2h-18.7l2-7.4,1.1-4c.1-.4.2-.8.2-1.2,0,0,0-.1,0-.2,0-.6,0-1.1,0-1.7-.2-2.3-1.4-4.4-3.2-5.8-.5-.4-1-.7-1.5-1-.3-.1-.5-.2-.8-.3-.6-.2-1.2-.4-1.8-.5-.9-.1-1.7-.1-2.6,0-2.1.3-4,1.4-5.4,3.2l-3.2,4.2-2,2.6-8.8,11.5c-.3.4-.6.9-.9,1.4-.5.9-.8,1.8-1,2.7h-18.3c-2,0-3.6,1.6-3.6,3.6v36c0,2,1.6,3.6,3.6,3.6h54.7c4.3,0,8.2-2.5,9.9-6.5l2.9-6.6,1.1-2.6,3.1-7.2,2.6-5.8.4-.9c.3-.6.4-1.1.6-1.7.2-.8.3-1.7.3-2.6v-2.1c0-.9-.1-1.7-.3-2.5ZM59.1,142.9h-14.4v-28.8h14.4v28.8ZM109.5,116.2c0,.5,0,1-.3,1.5l-.5,1.2-1.1,2.6-2.6,5.8-3.2,7.2-1.1,2.6-1.6,3.7c-.6,1.3-1.9,2.2-3.3,2.2h-29.5v-33.5c0-.8.3-1.6.7-2.2l.6-.8,6.1-7.9,5.5-7.2,1.5-1.9.3-.4c.4-.5,1.1-.6,1.6-.4.2,0,.3.2.4.4,0,.1.2.3.2.4,0,.2,0,.5,0,.7h0s-2.3,8.4-2.3,8.4l-.3,1.1-1.7,6.4c-.3,1.1,0,2.2.6,3.1.3.4.7.7,1.1,1,.4.2.8.4,1.3.4.2,0,.3,0,.5,0h23.4c2,0,3.6,1.6,3.6,3.6v2.1Z"/>
  </g>
</svg>