<?xml version="1.0" encoding="UTF-8"?>
<svg id="Layer_1" xmlns="http://www.w3.org/2000/svg" version="1.1" viewBox="0 0 465.3 404.9">
  <!-- Generator: Adobe Illustrator 29.1.0, SVG Export Plug-In . SVG Version: 2.1.0 Build 142)  -->
  <path d="M463.6,178.7c-3.6-15.1-12.7-28.2-25-37-10.4-7.4-23.1-11.8-36.8-11.8h-109.8l11.8-43.3,6.4-23.5c.6-2.3,1.1-4.6,1.4-6.9,0-.4,0-.8.1-1.2.4-3.3.4-6.6,0-9.9-1.3-13.3-8-25.8-18.6-34.2-2.7-2.1-5.6-4-8.7-5.6-1.5-.8-3-1.4-4.6-2-3.4-1.3-6.9-2.2-10.4-2.7-5.1-.8-10.2-.7-15.3.1-12.2,1.9-23.6,8.4-31.6,18.8l-18.8,24.5-11.7,15.3-52,67.6c-2,2.6-3.8,5.3-5.3,8.2-2.8,5.1-4.8,10.5-6.2,16.1H21.1c-11.7,0-21.1,9.5-21.1,21.1v211.5c0,11.7,9.5,21.2,21.1,21.2h321.3c25.2,0,48-14.9,58.1-38l16.9-38.7,6.7-15.2,18.5-42.3,15-34.4,2.2-5.1c1.5-3.3,2.6-6.7,3.5-10.1,1.3-5,1.9-10.1,1.9-15.3v-12.4c0-5-.6-9.9-1.7-14.6ZM126.9,362.5H42.3v-169.2h84.5v169.2ZM423,205.6c0,3-.6,5.8-1.8,8.5l-3,6.9-6.7,15.3-15,34.4-18.6,42.3-6.7,15.2-9.5,21.7c-3.4,7.8-11,12.7-19.4,12.7h-173.3v-197.1c0-4.6,1.5-9.2,4.4-12.9l3.5-4.6,35.8-46.6,32.5-42.2,8.8-11.4,1.9-2.5c2.2-2.8,6.2-3.8,9.5-2.2,1.1.6,2,1.4,2.6,2.3.6.7,1,1.6,1.2,2.4.4,1.3.4,2.7,0,4.1v.2c0,0-13.5,49.3-13.5,49.3l-1.8,6.6-10.2,37.5c-1.7,6.4-.4,13.1,3.7,18.4,1.8,2.4,4,4.3,6.6,5.7,2.2,1.3,4.8,2.1,7.4,2.4.9.2,1.8.2,2.8.2h137.5c11.6,0,21.1,9.4,21.1,21.1v12.3Z"/>
</svg>